<svg width="802" height="617" viewBox="0 0 802 617" fill="none" xmlns="http://www.w3.org/2000/svg">
<path d="M65.7627 467.78C64.6974 468.601 63.1568 468.333 62.3946 467.344L55.7284 458.533C54.9075 457.468 55.0996 455.986 56.165 455.165C57.2303 454.344 58.7708 454.612 59.533 455.601L66.1993 464.412C66.9615 465.401 66.7519 467.018 65.7627 467.78Z" fill="#8BE8FF" fill-opacity="0.2" stroke="#D2F6FF" stroke-opacity="0.2" stroke-width="4"/>
<path d="M44.4755 498.859C43.8667 499.328 43.0235 499.493 42.3087 499.195L31.7754 495.911C30.5218 495.543 29.812 494.15 30.18 492.896C30.548 491.642 31.9413 490.932 33.195 491.3L43.7282 494.584C45.0405 495.028 45.6917 496.345 45.3237 497.599C45.1778 498.197 44.8559 498.566 44.4755 498.859Z" fill="#8BE8FF" fill-opacity="0.2" stroke="#D2F6FF" stroke-opacity="0.2" stroke-width="4"/>
<path d="M45.5595 536.47C45.3312 536.646 45.179 536.763 44.8921 536.863L34.4288 540.439C33.2051 540.897 31.793 540.166 31.3352 538.942C30.8774 537.718 31.6084 536.306 32.8321 535.848L43.2954 532.272C44.5192 531.814 45.9312 532.545 46.389 533.769C46.7296 534.841 46.3965 535.825 45.5595 536.47Z" fill="#8BE8FF" fill-opacity="0.2" stroke="#D2F6FF" stroke-opacity="0.2" stroke-width="4"/>
<path d="M62.2421 575.281C61.4051 575.926 60.2338 575.979 59.3606 575.318C58.2941 574.563 58.0059 573.088 58.7606 572.021L65.1374 562.983C65.9681 561.858 67.3677 561.628 68.4343 562.383C69.5008 563.138 69.789 564.614 69.0343 565.68L62.6575 574.718C62.6226 574.987 62.3943 575.163 62.2421 575.281Z" fill="#8BE8FF" fill-opacity="0.2" stroke="#D2F6FF" stroke-opacity="0.2" stroke-width="4"/>
<path d="M104.925 587.869C104.544 588.162 104.047 588.303 103.49 588.368C102.184 588.404 101.094 587.304 101.058 585.998L100.914 574.951C100.878 573.644 101.978 572.554 103.285 572.518C104.591 572.482 105.681 573.582 105.717 574.888L105.86 585.935C105.89 586.761 105.458 587.459 104.925 587.869Z" fill="#8BE8FF" fill-opacity="0.2" stroke="#D2F6FF" stroke-opacity="0.2" stroke-width="4"/>
<path d="M146.848 573.027C146.848 573.027 146.772 573.086 146.848 573.027C145.783 573.848 144.242 573.58 143.48 572.591L136.814 563.781C135.993 562.715 136.185 561.233 137.25 560.412C138.316 559.591 139.856 559.859 140.618 560.849L147.285 569.659C148.029 570.783 147.837 572.265 146.848 573.027Z" fill="#8BE8FF" fill-opacity="0.2" stroke="#D2F6FF" stroke-opacity="0.2" stroke-width="4"/>
<path d="M171.944 536.345C171.336 536.814 170.492 536.978 169.778 536.68L159.244 533.397C157.991 533.029 157.281 531.635 157.649 530.382C158.017 529.128 159.41 528.418 160.664 528.786L171.197 532.069C172.451 532.437 173.161 533.831 172.793 535.085C172.588 535.606 172.325 536.051 171.944 536.345Z" fill="#8BE8FF" fill-opacity="0.2" stroke="#D2F6FF" stroke-opacity="0.2" stroke-width="4"/>
<path d="M170.714 491.933C170.486 492.109 170.333 492.226 170.046 492.326L159.583 495.902C158.359 496.36 156.947 495.629 156.489 494.405C156.032 493.181 156.763 491.769 157.986 491.311L168.45 487.735C169.673 487.277 171.085 488.008 171.543 489.232C171.901 490.169 171.551 491.288 170.714 491.933Z" fill="#8BE8FF" fill-opacity="0.2" stroke="#D2F6FF" stroke-opacity="0.2" stroke-width="4"/>
<path d="M137.268 465.677C136.431 466.322 135.259 466.376 134.386 465.715C133.32 464.96 133.032 463.484 133.786 462.418L140.163 453.38C140.994 452.255 142.393 452.025 143.46 452.78C144.526 453.535 144.815 455.01 144.06 456.077L137.683 465.115C137.648 465.384 137.496 465.501 137.268 465.677Z" fill="#8BE8FF" fill-opacity="0.2" stroke="#D2F6FF" stroke-opacity="0.2" stroke-width="4"/>
<path d="M101.18 455.041C100.8 455.334 100.302 455.475 99.7455 455.54C98.4395 455.576 97.3492 454.476 97.313 453.169L97.1696 442.122C97.1334 440.816 98.2336 439.725 99.5397 439.689C100.846 439.653 101.936 440.753 101.972 442.06L102.116 453.107C102.146 453.933 101.713 454.63 101.18 455.041Z" fill="#8BE8FF" fill-opacity="0.2" stroke="#D2F6FF" stroke-opacity="0.2" stroke-width="4"/>
<path d="M129.904 551.033C109.587 566.69 80.2176 562.883 64.5637 542.564C48.9098 522.246 52.7169 492.873 73.0336 477.216C93.3503 461.56 122.72 465.367 138.374 485.685C154.028 506.004 150.297 535.318 129.904 551.033ZM75.965 481.021C57.7028 495.095 54.2974 521.369 68.3683 539.633C82.4393 557.897 108.71 561.302 126.972 547.228C145.234 533.155 148.64 506.881 134.569 488.617C120.574 470.295 94.2273 466.948 75.965 481.021Z" fill="#8BE8FF" fill-opacity="0.2" stroke="#D2F6FF" stroke-opacity="0.2" stroke-width="4"/>
<path d="M458.314 484.868H163.196C108.453 484.868 64 440.415 64 385.672C64 334.222 103.514 291.827 153.729 286.888C153.317 283.183 152.906 279.891 152.906 276.186C152.906 196.335 217.939 131.714 297.378 131.714C327.013 131.714 355.825 140.769 379.698 157.645C384.226 160.938 385.461 167.523 382.168 172.051C378.875 176.579 372.289 177.813 367.762 174.521C347.182 160.115 322.486 152.294 296.966 152.294C228.641 152.294 173.074 207.86 173.074 276.186C173.074 282.772 173.898 288.946 175.132 295.12L176.779 306.233L162.784 307.056C119.155 307.056 84.1687 342.454 84.1687 385.672C84.1687 428.89 119.566 464.288 162.784 464.288H458.314C512.645 464.288 556.687 420.247 556.687 365.915C556.687 359.33 555.863 352.744 554.628 346.158C553.394 340.808 557.098 335.045 562.861 334.222C568.212 333.399 573.974 336.692 574.797 342.454C576.444 350.274 577.267 358.506 577.267 366.327C577.267 431.771 523.759 484.868 458.314 484.868Z" fill="#44BFDE" fill-opacity="0.24"/>
<path d="M683.047 353.154H387.929C333.186 353.154 288.733 308.701 288.733 253.958C288.733 202.508 328.247 160.113 378.462 155.174C378.051 151.469 377.639 148.176 377.639 144.472C377.639 64.6214 442.261 0 522.111 0C592.084 0 650.943 49.8038 663.291 117.718C670.288 116.483 676.462 115.66 683.047 115.66C748.492 115.66 802 168.756 802 234.613C802 300.469 748.492 353.154 683.047 353.154ZM522.111 20.5801C453.786 20.5801 398.219 76.1462 398.219 144.472C398.219 151.058 399.042 157.232 400.277 163.406L401.924 174.519L387.929 175.342C344.3 175.342 309.313 210.74 309.313 253.958C309.313 297.176 344.711 332.574 387.929 332.574H683.047C737.379 332.574 781.42 288.532 781.42 234.201C781.42 179.87 737.379 135.828 683.047 135.828C675.227 135.828 666.995 137.063 657.528 139.533L646.003 142.826L644.768 130.889C638.183 67.9142 585.498 20.5801 522.111 20.5801Z" fill="#44BFDE" fill-opacity="0.24"/>
</svg>
