<svg width="1440" height="215" viewBox="0 0 1440 215" fill="none" xmlns="http://www.w3.org/2000/svg">
<g clip-path="url(#clip0_1_12)">
<path d="M-98 107.5L-97.1489 106.858L-96.2978 106.217L-95.4468 105.578L-94.5957 104.94L-93.7446 104.305L-92.8935 103.673L-92.0424 103.044L-91.1914 102.421L-90.3403 101.802L-89.4892 101.188L-88.6381 100.581L-87.787 99.981L-86.936 99.3883L-86.0849 98.8035L-85.2338 98.2272L-84.3827 97.6602L-83.5316 97.1028L-82.6806 96.5557L-81.8295 96.0194L-80.9784 95.4945L-80.1273 94.9814L-79.2762 94.4806L-78.4252 93.9927L-77.5741 93.5181L-76.723 93.0573L-75.8719 92.6108L-75.0208 92.179L-74.1698 91.7623L-73.3187 91.3611L-72.4676 90.9758L-71.6165 90.6069L-70.7654 90.2546L-69.9144 89.9193L-69.0633 89.6014L-68.2122 89.3012L-67.3611 89.0189L-66.51 88.7549L-65.659 88.5093L-64.8079 88.2825L-63.9568 88.0747L-63.1057 87.886L-62.2546 87.7167L-61.4036 87.5669L-60.5525 87.4368L-59.7014 87.3265L-58.8503 87.2361L-57.9992 87.1656L-57.1482 87.1153L-56.2971 87.0851L-55.446 87.075L-54.5949 87.0851L-53.7438 87.1153L-52.8928 87.1656L-52.0417 87.2361L-51.1906 87.3265L-50.3395 87.4368L-49.4884 87.5669L-48.6374 87.7167L-47.7863 87.886L-46.9352 88.0747L-46.0841 88.2825L-45.233 88.5093L-44.382 88.7549L-43.5309 89.0189L-42.6798 89.3012L-41.8287 89.6014L-40.9776 89.9193L-40.1266 90.2546L-39.2755 90.6069L-38.4244 90.9758L-37.5733 91.3611L-36.7222 91.7623L-35.8712 92.179L-35.0201 92.6108L-34.169 93.0573L-33.3179 93.5181L-32.4668 93.9927L-31.6158 94.4806L-30.7647 94.9814L-29.9136 95.4945L-29.0625 96.0194L-28.2114 96.5557L-27.3604 97.1028L-26.5093 97.6602L-25.6582 98.2272L-24.8071 98.8035L-23.956 99.3883L-23.105 99.981L-22.2539 100.581L-21.4028 101.188L-20.5517 101.802L-19.7006 102.421L-18.8496 103.044L-17.9985 103.673L-17.1474 104.305L-16.2963 104.94L-15.4452 105.578L-14.5942 106.217L-13.7431 106.858L-12.892 107.5L-12.0409 108.142L-11.1898 108.782L-10.3388 109.422L-9.48769 110.06L-8.63661 110.695L-7.78553 111.327L-6.93445 111.956L-6.08337 112.579L-5.23229 113.198L-4.38121 113.812L-3.53013 114.419L-2.67905 115.019L-1.82797 115.612L-0.976887 116.197L-0.125807 116.773L0.725273 117.34L1.57635 117.897L2.42743 118.444L3.27851 118.981L4.12959 119.506L4.98067 120.019L5.83175 120.519L6.68283 121.007L7.53391 121.482L8.38499 121.943L9.23607 122.389L10.0872 122.821L10.9382 123.238L11.7893 123.639L12.6404 124.024L13.4915 124.393L14.3426 124.745L15.1936 125.081L16.0447 125.399L16.8958 125.699L17.7469 125.981L18.598 126.245L19.449 126.491L20.3001 126.717L21.1512 126.925L22.0023 127.114L22.8534 127.283L23.7044 127.433L24.5555 127.563L25.4066 127.674L26.2577 127.764L27.1088 127.834L27.9598 127.885L28.8109 127.915L29.662 127.925L30.5131 127.915L31.3642 127.885L32.2152 127.834L33.0663 127.764L33.9174 127.674L34.7685 127.563L35.6196 127.433L36.4706 127.283L37.3217 127.114L38.1728 126.925L39.0239 126.717L39.875 126.491L40.726 126.245L41.5771 125.981L42.4282 125.699L43.2793 125.399L44.1304 125.081L44.9814 124.745L45.8325 124.393L46.6836 124.024L47.5347 123.639L48.3857 123.238L49.2368 122.821L50.0879 122.389L50.939 121.943L51.7901 121.482L52.6411 121.007L53.4922 120.519L54.3433 120.019L55.1944 119.506L56.0455 118.981L56.8965 118.444L57.7476 117.897L58.5987 117.34L59.4498 116.773L60.3009 116.197L61.1519 115.612L62.003 115.019L62.8541 114.419L63.7052 113.812L64.5563 113.198L65.4073 112.579L66.2584 111.956L67.1095 111.327L67.9606 110.695L68.8117 110.06L69.6627 109.422L70.5138 108.782L71.3649 108.142L72.216 107.5L73.0671 106.858L73.9181 106.217L74.7692 105.578L75.6203 104.94L76.4714 104.305L77.3225 103.673L78.1735 103.044L79.0246 102.421L79.8757 101.802L80.7268 101.188L81.5779 100.581L82.4289 99.981L83.28 99.3883L84.1311 98.8035L84.9822 98.2272L85.8333 97.6602L86.6843 97.1028L87.5354 96.5557L88.3865 96.0194L89.2376 95.4945L90.0887 94.9814L90.9397 94.4806L91.7908 93.9927L92.6419 93.5181L93.493 93.0573L94.3441 92.6108L95.1951 92.179L96.0462 91.7623L96.8973 91.3611L97.7484 90.9758L98.5995 90.6069L99.4505 90.2546L100.302 89.9193L101.153 89.6014L102.004 89.3012L102.855 89.0189L103.706 88.7549L104.557 88.5093L105.408 88.2825L106.259 88.0747L107.11 87.886L107.961 87.7167L108.812 87.5669L109.664 87.4368L110.515 87.3265L111.366 87.2361L112.217 87.1656L113.068 87.1153L113.919 87.0851L114.77 87.075L115.621 87.0851L116.472 87.1153L117.323 87.1656L118.174 87.2361L119.025 87.3265L119.876 87.4368L120.728 87.5669L121.579 87.7167L122.43 87.886L123.281 88.0747L124.132 88.2825L124.983 88.5093L125.834 88.7549L126.685 89.0189L127.536 89.3012L128.387 89.6014L129.238 89.9193L130.089 90.2546L130.941 90.6069L131.792 90.9758L132.643 91.3611L133.494 91.7623L134.345 92.179L135.196 92.6108L136.047 93.0573L136.898 93.5181L137.749 93.9927L138.6 94.4806L139.451 94.9814L140.302 95.4945L141.153 96.0194L142.005 96.5557L142.856 97.1028L143.707 97.6602L144.558 98.2272L145.409 98.8035L146.26 99.3883L147.111 99.981L147.962 100.581L148.813 101.188L149.664 101.802L150.515 102.421L151.366 103.044L152.218 103.673L153.069 104.305L153.92 104.94L154.771 105.578L155.622 106.217L156.473 106.858L157.324 107.5L158.175 108.142L159.026 108.782L159.877 109.422L160.728 110.06L161.579 110.695L162.43 111.327L163.282 111.956L164.133 112.579L164.984 113.198L165.835 113.812L166.686 114.419L167.537 115.019L168.388 115.612L169.239 116.197L170.09 116.773L170.941 117.34L171.792 117.897L172.643 118.444L173.495 118.981L174.346 119.506L175.197 120.019L176.048 120.519L176.899 121.007L177.75 121.482L178.601 121.943L179.452 122.389L180.303 122.821L181.154 123.238L182.005 123.639L182.856 124.024L183.707 124.393L184.559 124.745L185.41 125.081L186.261 125.399L187.112 125.699L187.963 125.981L188.814 126.245L189.665 126.491L190.516 126.717L191.367 126.925L192.218 127.114L193.069 127.283L193.92 127.433L194.771 127.563L195.623 127.674L196.474 127.764L197.325 127.834L198.176 127.885L199.027 127.915L199.878 127.925L200.729 127.915L201.58 127.885L202.431 127.834L203.282 127.764L204.133 127.674L204.984 127.563L205.836 127.433L206.687 127.283L207.538 127.114L208.389 126.925L209.24 126.717L210.091 126.491L210.942 126.245L211.793 125.981L212.644 125.699L213.495 125.399L214.346 125.081L215.197 124.745L216.048 124.393L216.9 124.024L217.751 123.639L218.602 123.238L219.453 122.821L220.304 122.389L221.155 121.943L222.006 121.482L222.857 121.007L223.708 120.519L224.559 120.019L225.41 119.506L226.261 118.981L227.113 118.444L227.964 117.897L228.815 117.34L229.666 116.773L230.517 116.197L231.368 115.612L232.219 115.019L233.07 114.419L233.921 113.812L234.772 113.198L235.623 112.579L236.474 111.956L237.325 111.327L238.177 110.695L239.028 110.06L239.879 109.422L240.73 108.782L241.581 108.142" stroke="#498594" stroke-width="5" stroke-miterlimit="10" stroke-linecap="round" stroke-linejoin="round"/>
</g>
<path d="M237.8 110.725L238.958 109.881L240.116 109.037L241.274 108.193L242.432 107.35L243.59 106.508L244.748 105.667L245.906 104.827L247.064 103.988L248.222 103.152L249.38 102.317L250.538 101.484L251.695 100.653L252.853 99.8252L254.011 98.9998L255.169 98.1773L256.327 97.3579L257.485 96.5418L258.643 95.7292L259.801 94.9203L260.959 94.1153L262.117 93.3144L263.275 92.5178L264.433 91.7257L265.591 90.9383L266.749 90.1558L267.907 89.3783L269.064 88.6061L270.222 87.8394L271.38 87.0783L272.538 86.323L273.696 85.5738L274.854 84.8307L276.012 84.0941L277.17 83.364L278.328 82.6407L279.486 81.9243L280.644 81.215L281.802 80.513L282.96 79.8185L284.118 79.1316L285.276 78.4524L286.433 77.7813L287.591 77.1182L288.749 76.4635L289.907 75.8172L291.065 75.1795L292.223 74.5506L293.381 73.9306L294.539 73.3197L295.697 72.718L296.855 72.1257L298.013 71.5429L299.171 70.9698L300.329 70.4065L301.487 69.8532L302.644 69.3099L303.802 68.7769L304.96 68.2542L306.118 67.742L307.276 67.2403L308.434 66.7495L309.592 66.2694L310.75 65.8004L311.908 65.3424L313.066 64.8956L314.224 64.4601L315.382 64.0361L316.54 63.6235L317.698 63.2226L318.856 62.8334L320.013 62.456L321.171 62.0906L322.329 61.7371L323.487 61.3957L324.645 61.0665L325.803 60.7495L326.961 60.4449L328.119 60.1527L329.277 59.8729L330.435 59.6057L331.593 59.3511L332.751 59.1092L333.909 58.88L335.067 58.6637L336.225 58.4601L337.382 58.2695L338.54 58.0918L339.698 57.9271L340.856 57.7754L342.014 57.6368L343.172 57.5112L344.33 57.3988L345.488 57.2996L346.646 57.2135L347.804 57.1407L348.962 57.0811L350.12 57.0347L351.278 57.0015L352.436 56.9816L353.593 56.975L354.751 56.9816L355.909 57.0015L357.067 57.0347L358.225 57.0811L359.383 57.1407L360.541 57.2135L361.699 57.2996L362.857 57.3988L364.015 57.5112L365.173 57.6368L366.331 57.7754L367.489 57.9271L368.647 58.0918L369.805 58.2695L370.962 58.4601L372.12 58.6637L373.278 58.88L374.436 59.1092L375.594 59.3511L376.752 59.6057L377.91 59.8729L379.068 60.1527L380.226 60.4449L381.384 60.7495L382.542 61.0665L383.7 61.3957L384.858 61.7371L386.016 62.0906L387.174 62.456L388.331 62.8334L389.489 63.2226L390.647 63.6235L391.805 64.0361L392.963 64.4601L394.121 64.8956L395.279 65.3424L396.437 65.8004L397.595 66.2694L398.753 66.7495L399.911 67.2403L401.069 67.742L402.227 68.2542L403.385 68.7769L404.543 69.3099L405.7 69.8532L406.858 70.4065L408.016 70.9698L409.174 71.5429L410.332 72.1257L411.49 72.718L412.648 73.3197L413.806 73.9306L414.964 74.5506L416.122 75.1795L417.28 75.8172L418.438 76.4635L419.596 77.1182L420.754 77.7813L421.911 78.4524L423.069 79.1316L424.227 79.8185L425.385 80.513L426.543 81.215L427.701 81.9243L428.859 82.6407L430.017 83.364L431.175 84.0941L432.333 84.8307L433.491 85.5738L434.649 86.323L435.807 87.0783L436.965 87.8394L438.123 88.6061L439.28 89.3783L440.438 90.1558L441.596 90.9383L442.754 91.7257L443.912 92.5178L445.07 93.3144L446.228 94.1153L447.386 94.9203L448.544 95.7292L449.702 96.5418L450.86 97.3579L452.018 98.1773L453.176 98.9998L454.334 99.8252L455.492 100.653L456.649 101.484L457.807 102.317L458.965 103.152L460.123 103.988L461.281 104.827L462.439 105.667L463.597 106.508L464.755 107.35L465.913 108.193L467.071 109.037L468.229 109.881L469.387 110.725L470.545 111.569L471.703 112.413L472.86 113.257L474.018 114.1L475.176 114.942L476.334 115.783L477.492 116.623L478.65 117.462L479.808 118.298L480.966 119.133L482.124 119.966L483.282 120.797L484.44 121.625L485.598 122.45L486.756 123.273L487.914 124.092L489.072 124.908L490.229 125.721L491.387 126.53L492.545 127.335L493.703 128.136L494.861 128.932L496.019 129.724L497.177 130.512L498.335 131.294L499.493 132.072L500.651 132.844L501.809 133.611L502.967 134.372L504.125 135.127L505.283 135.876L506.441 136.619L507.598 137.356L508.756 138.086L509.914 138.809L511.072 139.526L512.23 140.235L513.388 140.937L514.546 141.632L515.704 142.318L516.862 142.998L518.02 143.669L519.178 144.332L520.336 144.987L521.494 145.633L522.652 146.271L523.81 146.899L524.967 147.519L526.125 148.13L527.283 148.732L528.441 149.324L529.599 149.907L530.757 150.48L531.915 151.043L533.073 151.597L534.231 152.14L535.389 152.673L536.547 153.196L537.705 153.708L538.863 154.21L540.021 154.701L541.178 155.181L542.336 155.65L543.494 156.108L544.652 156.554L545.81 156.99L546.968 157.414L548.126 157.826L549.284 158.227L550.442 158.617L551.6 158.994L552.758 159.359L553.916 159.713L555.074 160.054L556.232 160.384L557.39 160.701L558.547 161.005L559.705 161.297L560.863 161.577L562.021 161.844L563.179 162.099L564.337 162.341L565.495 162.57L566.653 162.786L567.811 162.99L568.969 163.181L570.127 163.358L571.285 163.523L572.443 163.675L573.601 163.813L574.759 163.939L575.916 164.051L577.074 164.15L578.232 164.236L579.39 164.309L580.548 164.369L581.706 164.415L582.864 164.448L584.022 164.468L585.18 164.475L586.338 164.468L587.496 164.448L588.654 164.415L589.812 164.369L590.97 164.309L592.127 164.236L593.285 164.15L594.443 164.051L595.601 163.939L596.759 163.813L597.917 163.675L599.075 163.523L600.233 163.358L601.391 163.181L602.549 162.99L603.707 162.786L604.865 162.57L606.023 162.341L607.181 162.099L608.339 161.844L609.496 161.577L610.654 161.297L611.812 161.005L612.97 160.701L614.128 160.384L615.286 160.054L616.444 159.713L617.602 159.359L618.76 158.994L619.918 158.617L621.076 158.227L622.234 157.826L623.392 157.414L624.55 156.99L625.708 156.554L626.865 156.108L628.023 155.65L629.181 155.181L630.339 154.701L631.497 154.21L632.655 153.708L633.813 153.196L634.971 152.673L636.129 152.14L637.287 151.597L638.445 151.043L639.603 150.48L640.761 149.907L641.919 149.324L643.077 148.732L644.234 148.13L645.392 147.519L646.55 146.899L647.708 146.271L648.866 145.633L650.024 144.987L651.182 144.332L652.34 143.669L653.498 142.998L654.656 142.318L655.814 141.632L656.972 140.937L658.13 140.235L659.288 139.526L660.445 138.809L661.603 138.086L662.761 137.356L663.919 136.619L665.077 135.876L666.235 135.127L667.393 134.372L668.551 133.611L669.709 132.844L670.867 132.072L672.025 131.294L673.183 130.512L674.341 129.724L675.499 128.932L676.657 128.136L677.814 127.335L678.972 126.53L680.13 125.721L681.288 124.908L682.446 124.092L683.604 123.273L684.762 122.45L685.92 121.625L687.078 120.797L688.236 119.966L689.394 119.133L690.552 118.298L691.71 117.462L692.868 116.623L694.026 115.783L695.183 114.942L696.341 114.1L697.499 113.257L698.657 112.413L699.815 111.569" stroke="#498594" stroke-width="5" stroke-miterlimit="10" stroke-linecap="round" stroke-linejoin="round"/>
<path d="M700.973 110.725L703.068 109.256L705.164 107.791L707.259 106.332L709.354 104.883L711.45 103.447L713.545 102.027L715.64 100.627L717.736 99.2487L719.831 97.896L721.926 96.5718L724.021 95.2791L726.117 94.0206L728.212 92.7992L730.307 91.6176L732.403 90.4785L734.498 89.3842L736.593 88.3374L738.689 87.3403L740.784 86.3951L742.879 85.5039L744.974 84.6687L747.07 83.8914L749.165 83.1736L751.26 82.517L753.356 81.9231L755.451 81.393L757.546 80.9282L759.642 80.5294L761.737 80.1977L763.832 79.9338L765.928 79.7383L768.023 79.6115L770.118 79.5538L772.213 79.5654L774.309 79.6461L776.404 79.7958L778.499 80.0142L780.595 80.3008L782.69 80.6549L784.785 81.0758L786.881 81.5625L788.976 82.114L791.071 82.729L793.167 83.4061L795.262 84.1439L797.357 84.9408L799.452 85.7948L801.548 86.7042L803.643 87.667L805.738 88.6809L807.834 89.7438L809.929 90.8533L812.024 92.0069L814.12 93.2021L816.215 94.4361L818.31 95.7063L820.405 97.0099L822.501 98.3439L824.596 99.7054L826.691 101.091L828.787 102.499L830.882 103.924L832.977 105.365L835.073 106.818L837.168 108.279L839.263 109.746L841.359 111.215L843.454 112.682L845.549 114.146L847.644 115.602L849.74 117.047L851.835 118.478L853.93 119.892L856.026 121.285L858.121 122.655L860.216 123.999L862.312 125.313L864.407 126.594L866.502 127.841L868.598 129.049L870.693 130.217L872.788 131.341L874.883 132.42L876.979 133.451L879.074 134.431L881.169 135.358L883.265 136.231L885.36 137.047L887.455 137.805L889.551 138.502L891.646 139.138L893.741 139.711L895.836 140.219L897.932 140.662L900.027 141.039L902.122 141.348L904.218 141.589L906.313 141.762L908.408 141.865L910.504 141.9L912.599 141.865L914.694 141.762L916.79 141.589L918.885 141.348L920.98 141.039L923.075 140.662L925.171 140.219L927.266 139.711L929.361 139.138L931.457 138.502L933.552 137.805L935.647 137.047L937.743 136.231L939.838 135.358L941.933 134.431L944.029 133.451L946.124 132.42L948.219 131.341L950.314 130.217L952.41 129.049L954.505 127.841L956.6 126.594L958.696 125.313L960.791 123.999L962.886 122.655L964.982 121.285L967.077 119.892L969.172 118.478L971.267 117.047L973.363 115.602L975.458 114.146L977.553 112.682L979.649 111.215L981.744 109.746L983.839 108.279L985.935 106.818L988.03 105.365L990.125 103.924L992.221 102.499L994.316 101.091L996.411 99.7054L998.506 98.3439L1000.6 97.0099L1002.7 95.7063L1004.79 94.4361L1006.89 93.2021L1008.98 92.0069L1011.08 90.8533L1013.17 89.7438L1015.27 88.6809L1017.36 87.667L1019.46 86.7042L1021.55 85.7948L1023.65 84.9408L1025.75 84.1439L1027.84 83.4061L1029.94 82.729L1032.03 82.114L1034.13 81.5625L1036.22 81.0758L1038.32 80.6549L1040.41 80.3008L1042.51 80.0142L1044.6 79.7958L1046.7 79.6461L1048.79 79.5654L1050.89 79.5538L1052.98 79.6115L1055.08 79.7383L1057.18 79.9338L1059.27 80.1977L1061.37 80.5294L1063.46 80.9282L1065.56 81.393L1067.65 81.9231L1069.75 82.517L1071.84 83.1736L1073.94 83.8914L1076.03 84.6687L1078.13 85.5039L1080.22 86.3951L1082.32 87.3403L1084.41 88.3374L1086.51 89.3842L1088.6 90.4785L1090.7 91.6176L1092.8 92.7992L1094.89 94.0206L1096.99 95.2791L1099.08 96.5718L1101.18 97.896L1103.27 99.2487L1105.37 100.627L1107.46 102.027L1109.56 103.447L1111.65 104.883L1113.75 106.332L1115.84 107.791L1117.94 109.256L1120.03 110.725L1122.13 112.194L1124.22 113.659L1126.32 115.118L1128.42 116.567L1130.51 118.003L1132.61 119.423L1134.7 120.823L1136.8 122.201L1138.89 123.554L1140.99 124.878L1143.08 126.171L1145.18 127.429L1147.27 128.651L1149.37 129.832L1151.46 130.972L1153.56 132.066L1155.65 133.113L1157.75 134.11L1159.84 135.055L1161.94 135.946L1164.04 136.781L1166.13 137.559L1168.23 138.276L1170.32 138.933L1172.42 139.527L1174.51 140.057L1176.61 140.522L1178.7 140.921L1180.8 141.252L1182.89 141.516L1184.99 141.712L1187.08 141.838L1189.18 141.896L1191.27 141.885L1193.37 141.804L1195.47 141.654L1197.56 141.436L1199.66 141.149L1201.75 140.795L1203.85 140.374L1205.94 139.887L1208.04 139.336L1210.13 138.721L1212.23 138.044L1214.32 137.306L1216.42 136.509L1218.51 135.655L1220.61 134.746L1222.7 133.783L1224.8 132.769L1226.89 131.706L1228.99 130.597L1231.09 129.443L1233.18 128.248L1235.28 127.014L1237.37 125.744L1239.47 124.44L1241.56 123.106L1243.66 121.745L1245.75 120.359L1247.85 118.951L1249.94 117.526L1252.04 116.085L1254.13 114.632L1256.23 113.171L1258.32 111.704L1260.42 110.235L1262.51 108.768L1264.61 107.304L1266.71 105.848L1268.8 104.403L1270.9 102.972L1272.99 101.558L1275.09 100.165L1277.18 98.7948L1279.28 97.4513L1281.37 96.1373L1283.47 94.8556L1285.56 93.6092L1287.66 92.4008L1289.75 91.2331L1291.85 90.1086L1293.94 89.0299L1296.04 87.9994L1298.14 87.0193L1300.23 86.0919L1302.33 85.2192L1304.42 84.4031L1306.52 83.6454L1308.61 82.9479L1310.71 82.312L1312.8 81.7392L1314.9 81.2308L1316.99 80.7878L1319.09 80.4114L1321.18 80.1022L1323.28 79.861L1325.37 79.6884L1327.47 79.5846L1329.56 79.55L1331.66 79.5846L1333.76 79.6884L1335.85 79.861L1337.95 80.1022L1340.04 80.4114L1342.14 80.7878L1344.23 81.2308L1346.33 81.7392L1348.42 82.312L1350.52 82.9479L1352.61 83.6454L1354.71 84.4031L1356.8 85.2192L1358.9 86.0919L1360.99 87.0193L1363.09 87.9994L1365.18 89.0299L1367.28 90.1086L1369.38 91.2331L1371.47 92.4008L1373.57 93.6092L1375.66 94.8556L1377.76 96.1373L1379.85 97.4513L1381.95 98.7948L1384.04 100.165L1386.14 101.558L1388.23 102.972L1390.33 104.403L1392.42 105.848L1394.52 107.304L1396.61 108.768L1398.71 110.235L1400.81 111.704L1402.9 113.171L1405 114.632L1407.09 116.085L1409.19 117.526L1411.28 118.951L1413.38 120.359L1415.47 121.745L1417.57 123.106L1419.66 124.44L1421.76 125.744L1423.85 127.014L1425.95 128.248L1428.04 129.443L1430.14 130.597L1432.23 131.706L1434.33 132.769L1436.43 133.783L1438.52 134.746L1440.62 135.655L1442.71 136.509L1444.81 137.306L1446.9 138.044L1449 138.721L1451.09 139.336L1453.19 139.887L1455.28 140.374L1457.38 140.795L1459.47 141.149L1461.57 141.436L1463.66 141.654L1465.76 141.804L1467.85 141.885L1469.95 141.896L1472.05 141.838L1474.14 141.712L1476.24 141.516L1478.33 141.252L1480.43 140.921L1482.52 140.522L1484.62 140.057L1486.71 139.527L1488.81 138.933L1490.9 138.276L1493 137.559L1495.09 136.781L1497.19 135.946L1499.28 135.055L1501.38 134.11L1503.48 133.113L1505.57 132.066L1507.67 130.972L1509.76 129.832L1511.86 128.651L1513.95 127.429L1516.05 126.171L1518.14 124.878L1520.24 123.554L1522.33 122.201L1524.43 120.823L1526.52 119.423L1528.62 118.003L1530.71 116.567L1532.81 115.118L1534.9 113.659L1537 112.194" stroke="#498594" stroke-width="5" stroke-miterlimit="10" stroke-linecap="round" stroke-linejoin="round"/>
<defs>
<clipPath id="clip0_1_12">
<rect width="340.432" height="215" fill="white" transform="translate(-98)"/>
</clipPath>
</defs>
</svg>
